<svg xmlns="http://www.w3.org/2000/svg" xmlns:xlink="http://www.w3.org/1999/xlink" version="1.1" x="0" y="0" style="enable-background:new 0 0 512 512" xml:space="preserve" class="" viewBox="151.5 98.79 208.9 314.41"><g><linearGradient id="a" x1="151.52" x2="360.48" y1="257.562" y2="257.562" gradientTransform="matrix(1 0 0 -1 0 513.57)" gradientUnits="userSpaceOnUse"><stop stop-opacity="1" stop-color="#967bb6" offset="0"/><stop stop-opacity="1" stop-color="#967bb6" offset="0.03"/><stop stop-opacity="1" stop-color="#967bb6" offset="0.5"/><stop stop-opacity="1" stop-color="#967bb6" offset="0.84"/><stop stop-opacity="1" stop-color="#967bb6" offset="0.9980694980694981"/></linearGradient><path fill="url(#a)" d="M151.5 98.8v314.4c11.8.2 23.2-4.5 31.4-13 8.4-8.2 13.1-19.5 13-31.2V143c.1-11.7-4.6-23-13-31.2-8.2-8.5-19.6-13.2-31.4-13zm120.2 209 46.4-44.4c9-8.8 13.4-16.3 13.6-22.4s.2-9.4.2-9.7c0-11.2-4.2-21.5-12.3-30.6l-78.9 74.5-32.1 30.6 89.2 93.6c9 9 16.5 13.4 22.4 13.6 6.1.2 9.5.2 9.7.2 11.4 0 21.5-4.2 30.5-12.3z" opacity="1" data-original="url(#a)" class=""/></g></svg>